<?xml version="1.0" encoding="UTF-8"?>
<svg xmlns="http://www.w3.org/2000/svg" xmlns:xlink="http://www.w3.org/1999/xlink" width="100pt" height="100pt" viewBox="0 0 100 100" version="1.1">
<g id="surface1">
<path style=" stroke:none;fill-rule:nonzero;fill:rgb(0%,0%,0%);fill-opacity:1;" d="M 3.839844 74.980469 L 3.839844 32.753906 L 46.164062 32.753906 L 43.664062 28.914062 L 0 28.914062 L 0 78.820312 L 31.664062 78.820312 L 37.316406 74.980469 Z M 3.839844 74.980469 "/>
<path style=" stroke:none;fill-rule:nonzero;fill:rgb(0%,0%,0%);fill-opacity:1;" d="M 73.144531 74.980469 L 71.273438 74.980469 L 74.71875 78.820312 L 76.984375 78.820312 L 76.984375 51.011719 L 73.144531 49.660156 Z M 73.144531 74.980469 "/>
<path style=" stroke:none;fill-rule:nonzero;fill:rgb(0%,0%,0%);fill-opacity:1;" d="M 28.425781 41.234375 L 51.339844 41.234375 L 51.339844 44.15625 L 28.425781 44.15625 Z M 28.425781 41.234375 "/>
<path style=" stroke:none;fill-rule:nonzero;fill:rgb(0%,0%,0%);fill-opacity:1;" d="M 19.898438 48.726562 L 59.878906 48.726562 L 59.878906 51.945312 L 19.898438 51.945312 Z M 19.898438 48.726562 "/>
<path style=" stroke:none;fill-rule:nonzero;fill:rgb(0%,0%,0%);fill-opacity:1;" d="M 19.898438 55.476562 L 59.878906 55.476562 L 59.878906 58.695312 L 19.898438 58.695312 Z M 19.898438 55.476562 "/>
<path style=" stroke:none;fill-rule:nonzero;fill:rgb(0%,0%,0%);fill-opacity:1;" d="M 19.898438 61.859375 L 59.878906 61.859375 L 59.878906 65.082031 L 19.898438 65.082031 Z M 19.898438 61.859375 "/>
<path style=" stroke:none;fill-rule:nonzero;fill:rgb(0%,0%,0%);fill-opacity:1;" d="M 64.710938 75.890625 C 64.710938 71.105469 60.835938 67.234375 56.054688 67.234375 C 51.28125 67.234375 47.40625 71.101562 47.40625 75.890625 C 47.40625 80.664062 51.277344 84.539062 56.054688 84.539062 C 60.835938 84.535156 64.710938 80.664062 64.710938 75.890625 Z M 64.710938 75.890625 "/>
<path style=" stroke:none;fill-rule:nonzero;fill:rgb(0%,0%,0%);fill-opacity:1;" d="M 56.058594 88.898438 L 63.070312 97.757812 L 66.40625 88.980469 L 75.71875 87.761719 L 68.710938 78.90625 Z M 56.058594 88.898438 "/>
<path style=" stroke:none;fill-rule:nonzero;fill:rgb(0%,0%,0%);fill-opacity:1;" d="M 33.804688 82.890625 L 42.589844 86.230469 L 43.804688 95.539062 L 52.667969 88.539062 L 42.671875 75.882812 Z M 33.804688 82.890625 "/>
<path style=" stroke:none;fill-rule:nonzero;fill:rgb(0%,0%,0%);fill-opacity:1;" d="M 45.742188 1.628906 L 43.101562 5.335938 L 51.238281 11.132812 L 42.625 23.226562 L 57.394531 42.039062 L 78.898438 49.070312 L 87.507812 36.976562 L 91.46875 39.792969 L 85.355469 48.371094 L 83.382812 46.960938 L 78.210938 54.214844 L 84.367188 58.601562 L 89.53125 51.347656 L 88.214844 50.402344 L 94.324219 41.835938 L 96.742188 43.554688 L 99.390625 39.84375 Z M 45.742188 1.628906 "/>
</g>
</svg>
